<?xml version="1.0" encoding="UTF-8" standalone="no"?><!DOCTYPE svg PUBLIC "-//W3C//DTD SVG 1.1//EN" "http://www.w3.org/Graphics/SVG/1.1/DTD/svg11.dtd"><svg width="100%" height="100%" viewBox="0 0 16000 9000" version="1.1" xmlns="http://www.w3.org/2000/svg" xmlns:xlink="http://www.w3.org/1999/xlink" xml:space="preserve" xmlns:serif="http://www.serif.com/" style="fill-rule:evenodd;clip-rule:evenodd;stroke-linejoin:round;stroke-miterlimit:2;"><g transform="matrix(116.404,0,0,116.404,-48609.8,-66766.2)"><g transform="matrix(11.5617,0,0,11.5617,430.027,615.774)"><path d="M0.297,0.018l-0.045,-0.362l-0.198,0.344l-0.105,-0l0.273,-0.467l-0.009,-0.044c-0.005,-0.027 -0.023,-0.041 -0.053,-0.041c-0.009,0 -0.02,0.001 -0.032,0.003c-0.012,0.002 -0.026,0.006 -0.041,0.011l-0.001,-0.093c0.018,-0.006 0.035,-0.01 0.05,-0.013c0.016,-0.003 0.031,-0.004 0.044,-0.004c0.039,0 0.07,0.008 0.096,0.023c0.025,0.014 0.041,0.042 0.046,0.081l0.078,0.529l-0.103,0.033Z" style="fill:#f15512;fill-rule:nonzero;"/></g><g transform="matrix(11.5581,0,0,11.5581,441.544,615.774)"><path d="M0.382,-0.107l0.105,0c0.023,0 0.038,0.004 0.045,0.012c0.007,0.008 0.009,0.022 0.005,0.041c-0.004,0.019 -0.011,0.033 -0.022,0.041c-0.011,0.009 -0.028,0.013 -0.05,0.013l-0.331,-0c-0.022,-0 -0.037,-0.004 -0.044,-0.013c-0.008,-0.008 -0.009,-0.022 -0.006,-0.041c0.005,-0.019 0.012,-0.033 0.023,-0.041c0.01,-0.008 0.027,-0.012 0.049,-0.012l0.105,0l0.091,-0.424l-0.054,0c-0.022,0 -0.037,-0.004 -0.045,-0.013c-0.008,-0.008 -0.01,-0.022 -0.006,-0.041c0.004,-0.019 0.012,-0.033 0.023,-0.041c0.011,-0.009 0.028,-0.013 0.051,-0.013l0.146,-0c0.009,-0 0.016,0.002 0.02,0.005c0.004,0.004 0.006,0.009 0.004,0.016l-0.109,0.511Z" style="fill:#1da1f2;fill-rule:nonzero;"/></g><g transform="matrix(11.5581,0,0,11.5581,448.306,615.774)"><path d="M0.208,-0.197c0.001,0.036 0.012,0.063 0.032,0.081c0.021,0.018 0.051,0.027 0.092,0.027c0.04,0 0.082,-0.01 0.126,-0.029c0.043,-0.02 0.069,-0.03 0.077,-0.03c0.012,0 0.021,0.005 0.027,0.013c0.005,0.009 0.007,0.021 0.004,0.035c-0.007,0.031 -0.035,0.057 -0.085,0.079c-0.05,0.022 -0.108,0.033 -0.175,0.033c-0.079,0 -0.138,-0.022 -0.178,-0.066c-0.04,-0.044 -0.052,-0.101 -0.038,-0.171c0.015,-0.069 0.052,-0.126 0.111,-0.171c0.059,-0.044 0.127,-0.066 0.206,-0.066c0.071,0 0.124,0.021 0.162,0.062c0.037,0.042 0.049,0.093 0.036,0.153c-0.003,0.019 -0.011,0.032 -0.022,0.039c-0.011,0.008 -0.031,0.011 -0.06,0.011l-0.315,0Zm0.28,-0.076c0.001,-0.03 -0.008,-0.054 -0.028,-0.07c-0.019,-0.017 -0.047,-0.025 -0.084,-0.025c-0.036,-0 -0.066,0.008 -0.091,0.024c-0.025,0.015 -0.045,0.039 -0.06,0.071l0.263,0Z" style="fill:#1da1f2;fill-rule:nonzero;"/></g><g transform="matrix(11.5581,0,0,11.5581,455.069,615.774)"><path d="M0.287,-0.344l0.044,0.208l0.136,-0.208l-0.008,-0c-0.018,-0 -0.03,-0.005 -0.037,-0.014c-0.008,-0.009 -0.009,-0.022 -0.005,-0.04c0.003,-0.019 0.011,-0.033 0.022,-0.041c0.011,-0.008 0.028,-0.012 0.051,-0.012l0.114,-0c0.023,-0 0.038,0.004 0.046,0.012c0.007,0.009 0.009,0.022 0.005,0.041c-0.004,0.018 -0.011,0.031 -0.022,0.04c-0.011,0.009 -0.026,0.014 -0.043,0.014l-0.008,-0l-0.211,0.308c-0.015,0.022 -0.028,0.036 -0.038,0.041c-0.009,0.005 -0.023,0.007 -0.041,0.007c-0.033,0 -0.052,-0.013 -0.057,-0.041c-0.001,-0.003 -0.001,-0.006 -0.002,-0.007l-0.07,-0.308l-0.008,-0c-0.018,-0 -0.03,-0.005 -0.038,-0.014c-0.007,-0.009 -0.009,-0.022 -0.005,-0.04c0.004,-0.019 0.012,-0.033 0.023,-0.041c0.011,-0.008 0.028,-0.012 0.051,-0.012l0.124,-0c0.022,-0 0.037,0.004 0.045,0.012c0.007,0.009 0.009,0.022 0.005,0.041c-0.004,0.018 -0.011,0.031 -0.022,0.04c-0.012,0.009 -0.026,0.014 -0.043,0.014l-0.008,-0Z" style="fill:#1da1f2;fill-rule:nonzero;"/></g><g transform="matrix(11.5581,0,0,11.5581,461.832,615.774)"><path d="M0.391,-0.107l0.105,0c0.022,0 0.037,0.004 0.045,0.012c0.007,0.008 0.009,0.022 0.005,0.041c-0.004,0.019 -0.011,0.033 -0.023,0.041c-0.011,0.009 -0.028,0.013 -0.05,0.013l-0.33,-0c-0.022,-0 -0.037,-0.004 -0.045,-0.013c-0.008,-0.008 -0.01,-0.022 -0.006,-0.041c0.004,-0.019 0.012,-0.033 0.023,-0.041c0.011,-0.008 0.028,-0.012 0.051,-0.012l0.105,0l0.05,-0.237l-0.055,-0c-0.022,-0 -0.037,-0.004 -0.045,-0.013c-0.007,-0.008 -0.009,-0.022 -0.005,-0.041c0.004,-0.019 0.012,-0.033 0.023,-0.041c0.01,-0.008 0.027,-0.012 0.05,-0.012l0.147,-0c0.009,-0 0.015,0.002 0.019,0.005c0.004,0.004 0.006,0.009 0.004,0.016l-0.068,0.323Zm0.049,-0.565c0.024,0 0.039,0.005 0.045,0.014c0.006,0.009 0.005,0.031 -0.002,0.065c-0.007,0.033 -0.015,0.054 -0.024,0.062c-0.009,0.008 -0.026,0.012 -0.052,0.012c-0.026,-0 -0.041,-0.004 -0.047,-0.011c-0.006,-0.008 -0.006,-0.023 -0.001,-0.045c0.009,-0.042 0.018,-0.068 0.028,-0.08c0.01,-0.011 0.028,-0.017 0.053,-0.017Z" style="fill:#1da1f2;fill-rule:nonzero;"/></g><g transform="matrix(11.5581,0,0,11.5581,468.594,615.774)"><path d="M0.527,-0.108l0.007,0c0.018,0 0.031,0.005 0.038,0.014c0.007,0.008 0.009,0.022 0.005,0.04c-0.004,0.019 -0.011,0.033 -0.022,0.041c-0.011,0.009 -0.028,0.013 -0.05,0.013l-0.12,-0c-0.022,-0 -0.037,-0.004 -0.045,-0.013c-0.007,-0.008 -0.009,-0.022 -0.006,-0.041c0.004,-0.018 0.012,-0.032 0.023,-0.04c0.011,-0.009 0.026,-0.014 0.044,-0.014l0.006,0l0.03,-0.141c0.009,-0.039 0.009,-0.067 0.002,-0.083c-0.008,-0.017 -0.024,-0.025 -0.049,-0.025c-0.027,0 -0.052,0.01 -0.073,0.03c-0.021,0.019 -0.035,0.045 -0.042,0.078l-0.03,0.141l0.005,0c0.019,0 0.032,0.005 0.039,0.014c0.008,0.008 0.009,0.022 0.005,0.04c-0.003,0.019 -0.011,0.033 -0.022,0.041c-0.012,0.009 -0.028,0.013 -0.05,0.013l-0.121,0c-0.022,0 -0.036,-0.004 -0.044,-0.013c-0.008,-0.008 -0.01,-0.022 -0.006,-0.041c0.004,-0.018 0.012,-0.032 0.022,-0.04c0.011,-0.009 0.026,-0.014 0.045,-0.014l0.006,0l0.05,-0.236l-0.008,-0c-0.018,-0 -0.03,-0.005 -0.038,-0.014c-0.007,-0.009 -0.009,-0.022 -0.005,-0.039c0.004,-0.019 0.012,-0.033 0.023,-0.041c0.011,-0.009 0.028,-0.013 0.051,-0.013l0.083,-0c0.009,-0 0.015,0.002 0.019,0.005c0.004,0.004 0.006,0.009 0.004,0.016l-0.008,0.038c0.02,-0.024 0.043,-0.041 0.069,-0.053c0.025,-0.012 0.054,-0.018 0.084,-0.018c0.052,0 0.088,0.016 0.107,0.047c0.019,0.032 0.021,0.08 0.007,0.145l-0.035,0.163Z" style="fill:#1da1f2;fill-rule:nonzero;"/></g><g transform="matrix(11.5581,0,0,11.5581,482.12,615.774)"><path d="M0.223,-0.344l-0.012,0.24l0.092,-0.186c0.01,-0.02 0.019,-0.032 0.029,-0.039c0.01,-0.006 0.023,-0.009 0.04,-0.009c0.016,0 0.028,0.003 0.035,0.009c0.007,0.006 0.012,0.019 0.013,0.039l0.015,0.186l0.088,-0.24l-0.008,-0c-0.018,-0 -0.03,-0.005 -0.037,-0.014c-0.008,-0.009 -0.009,-0.022 -0.005,-0.04c0.004,-0.019 0.011,-0.033 0.022,-0.041c0.011,-0.008 0.028,-0.012 0.051,-0.012l0.115,-0c0.022,-0 0.037,0.004 0.045,0.012c0.007,0.009 0.009,0.022 0.005,0.041c-0.003,0.018 -0.011,0.031 -0.022,0.04c-0.012,0.009 -0.026,0.014 -0.043,0.014l-0.008,-0l-0.127,0.308c-0.007,0.017 -0.017,0.029 -0.03,0.037c-0.013,0.007 -0.031,0.011 -0.054,0.011c-0.022,0 -0.038,-0.004 -0.048,-0.011c-0.01,-0.008 -0.016,-0.02 -0.018,-0.037l-0.016,-0.19l-0.092,0.19c-0.007,0.016 -0.018,0.028 -0.033,0.036c-0.014,0.008 -0.032,0.012 -0.054,0.012c-0.022,0 -0.039,-0.004 -0.048,-0.011c-0.01,-0.008 -0.015,-0.02 -0.014,-0.037l0.003,-0.308l-0.008,-0c-0.018,-0 -0.03,-0.005 -0.037,-0.014c-0.007,-0.009 -0.008,-0.022 -0.004,-0.04c0.004,-0.019 0.011,-0.032 0.022,-0.041c0.011,-0.008 0.027,-0.012 0.05,-0.012l0.116,-0c0.022,-0 0.037,0.004 0.044,0.012c0.008,0.009 0.009,0.022 0.005,0.041c-0.003,0.018 -0.011,0.031 -0.022,0.04c-0.011,0.009 -0.025,0.014 -0.042,0.014l-0.008,-0Z" style="fill:#1da1f2;fill-rule:nonzero;"/></g><g transform="matrix(11.5581,0,0,11.5581,488.882,615.774)"><path d="M0.391,-0.107l0.105,0c0.022,0 0.037,0.004 0.045,0.012c0.007,0.008 0.009,0.022 0.005,0.041c-0.004,0.019 -0.011,0.033 -0.023,0.041c-0.011,0.009 -0.028,0.013 -0.05,0.013l-0.33,-0c-0.022,-0 -0.037,-0.004 -0.045,-0.013c-0.008,-0.008 -0.01,-0.022 -0.006,-0.041c0.004,-0.019 0.012,-0.033 0.023,-0.041c0.011,-0.008 0.028,-0.012 0.051,-0.012l0.105,0l0.05,-0.237l-0.055,-0c-0.022,-0 -0.037,-0.004 -0.045,-0.013c-0.007,-0.008 -0.009,-0.022 -0.005,-0.041c0.004,-0.019 0.012,-0.033 0.023,-0.041c0.01,-0.008 0.027,-0.012 0.05,-0.012l0.147,-0c0.009,-0 0.015,0.002 0.019,0.005c0.004,0.004 0.006,0.009 0.004,0.016l-0.068,0.323Zm0.049,-0.565c0.024,0 0.039,0.005 0.045,0.014c0.006,0.009 0.005,0.031 -0.002,0.065c-0.007,0.033 -0.015,0.054 -0.024,0.062c-0.009,0.008 -0.026,0.012 -0.052,0.012c-0.026,-0 -0.041,-0.004 -0.047,-0.011c-0.006,-0.008 -0.006,-0.023 -0.001,-0.045c0.009,-0.042 0.018,-0.068 0.028,-0.08c0.01,-0.011 0.028,-0.017 0.053,-0.017Z" style="fill:#1da1f2;fill-rule:nonzero;"/></g><g transform="matrix(11.5581,0,0,11.5581,495.645,615.774)"><path d="M0.382,-0.107l0.105,0c0.023,0 0.038,0.004 0.045,0.012c0.007,0.008 0.009,0.022 0.005,0.041c-0.004,0.019 -0.011,0.033 -0.022,0.041c-0.011,0.009 -0.028,0.013 -0.05,0.013l-0.331,-0c-0.022,-0 -0.037,-0.004 -0.044,-0.013c-0.008,-0.008 -0.009,-0.022 -0.006,-0.041c0.005,-0.019 0.012,-0.033 0.023,-0.041c0.01,-0.008 0.027,-0.012 0.049,-0.012l0.105,0l0.091,-0.424l-0.054,0c-0.022,0 -0.037,-0.004 -0.045,-0.013c-0.008,-0.008 -0.01,-0.022 -0.006,-0.041c0.004,-0.019 0.012,-0.033 0.023,-0.041c0.011,-0.009 0.028,-0.013 0.051,-0.013l0.146,-0c0.009,-0 0.016,0.002 0.02,0.005c0.004,0.004 0.006,0.009 0.004,0.016l-0.109,0.511Z" style="fill:#1da1f2;fill-rule:nonzero;"/></g><g transform="matrix(11.5581,0,0,11.5581,502.407,615.774)"><path d="M0.278,-0.265l0.123,-0.093c-0.01,-0.003 -0.016,-0.008 -0.018,-0.013c-0.002,-0.006 -0.002,-0.014 -0,-0.026c0.004,-0.02 0.011,-0.034 0.022,-0.042c0.011,-0.008 0.027,-0.012 0.05,-0.012l0.107,-0c0.023,-0 0.037,0.004 0.045,0.012c0.007,0.008 0.009,0.022 0.005,0.041c-0.003,0.014 -0.008,0.025 -0.015,0.031c-0.006,0.007 -0.018,0.012 -0.035,0.015c-0.016,0.003 -0.031,0.008 -0.044,0.015c-0.014,0.006 -0.03,0.018 -0.049,0.034l-0.042,0.036l0.094,0.16l0.013,0c0.019,0 0.032,0.004 0.039,0.013c0.008,0.009 0.01,0.022 0.006,0.04c-0.004,0.019 -0.011,0.033 -0.023,0.041c-0.011,0.009 -0.028,0.013 -0.05,0.013l-0.12,-0c-0.021,-0 -0.035,-0.004 -0.043,-0.011c-0.008,-0.007 -0.011,-0.018 -0.008,-0.034c0.003,-0.012 0.008,-0.021 0.015,-0.028c0.007,-0.007 0.017,-0.013 0.031,-0.018l-0.059,-0.097l-0.072,0.055l-0.021,0.101c-0.003,0.012 -0.007,0.021 -0.012,0.025c-0.005,0.005 -0.013,0.007 -0.024,0.007l-0.088,-0c-0.022,-0 -0.036,-0.004 -0.043,-0.013c-0.008,-0.008 -0.01,-0.022 -0.006,-0.041c0.004,-0.017 0.011,-0.031 0.022,-0.04c0.01,-0.008 0.024,-0.013 0.042,-0.013l0.007,0l0.091,-0.424l-0.008,0c-0.017,0 -0.029,-0.004 -0.037,-0.014c-0.007,-0.009 -0.009,-0.023 -0.005,-0.04c0.004,-0.019 0.012,-0.033 0.023,-0.041c0.011,-0.009 0.028,-0.013 0.05,-0.013l0.088,-0c0.011,-0 0.018,0.002 0.021,0.007c0.003,0.004 0.004,0.013 0.001,0.025l-0.073,0.342Z" style="fill:#1da1f2;fill-rule:nonzero;"/></g><g transform="matrix(11.5581,0,0,11.5581,509.17,615.774)"><path d="M0.391,-0.107l0.105,0c0.022,0 0.037,0.004 0.045,0.012c0.007,0.008 0.009,0.022 0.005,0.041c-0.004,0.019 -0.011,0.033 -0.023,0.041c-0.011,0.009 -0.028,0.013 -0.05,0.013l-0.33,-0c-0.022,-0 -0.037,-0.004 -0.045,-0.013c-0.008,-0.008 -0.01,-0.022 -0.006,-0.041c0.004,-0.019 0.012,-0.033 0.023,-0.041c0.011,-0.008 0.028,-0.012 0.051,-0.012l0.105,0l0.05,-0.237l-0.055,-0c-0.022,-0 -0.037,-0.004 -0.045,-0.013c-0.007,-0.008 -0.009,-0.022 -0.005,-0.041c0.004,-0.019 0.012,-0.033 0.023,-0.041c0.01,-0.008 0.027,-0.012 0.05,-0.012l0.147,-0c0.009,-0 0.015,0.002 0.019,0.005c0.004,0.004 0.006,0.009 0.004,0.016l-0.068,0.323Zm0.049,-0.565c0.024,0 0.039,0.005 0.045,0.014c0.006,0.009 0.005,0.031 -0.002,0.065c-0.007,0.033 -0.015,0.054 -0.024,0.062c-0.009,0.008 -0.026,0.012 -0.052,0.012c-0.026,-0 -0.041,-0.004 -0.047,-0.011c-0.006,-0.008 -0.006,-0.023 -0.001,-0.045c0.009,-0.042 0.018,-0.068 0.028,-0.08c0.01,-0.011 0.028,-0.017 0.053,-0.017Z" style="fill:#1da1f2;fill-rule:nonzero;"/></g><g transform="matrix(11.5581,0,0,11.5581,515.933,615.774)"><path d="M0.527,-0.108l0.007,0c0.018,0 0.031,0.005 0.038,0.014c0.007,0.008 0.009,0.022 0.005,0.04c-0.004,0.019 -0.011,0.033 -0.022,0.041c-0.011,0.009 -0.028,0.013 -0.05,0.013l-0.12,-0c-0.022,-0 -0.037,-0.004 -0.045,-0.013c-0.007,-0.008 -0.009,-0.022 -0.006,-0.041c0.004,-0.018 0.012,-0.032 0.023,-0.04c0.011,-0.009 0.026,-0.014 0.044,-0.014l0.006,0l0.03,-0.141c0.009,-0.039 0.009,-0.067 0.002,-0.083c-0.008,-0.017 -0.024,-0.025 -0.049,-0.025c-0.027,0 -0.052,0.01 -0.073,0.03c-0.021,0.019 -0.035,0.045 -0.042,0.078l-0.03,0.141l0.005,0c0.019,0 0.032,0.005 0.039,0.014c0.008,0.008 0.009,0.022 0.005,0.04c-0.003,0.019 -0.011,0.033 -0.022,0.041c-0.012,0.009 -0.028,0.013 -0.05,0.013l-0.121,0c-0.022,0 -0.036,-0.004 -0.044,-0.013c-0.008,-0.008 -0.01,-0.022 -0.006,-0.041c0.004,-0.018 0.012,-0.032 0.022,-0.04c0.011,-0.009 0.026,-0.014 0.045,-0.014l0.006,0l0.05,-0.236l-0.008,-0c-0.018,-0 -0.03,-0.005 -0.038,-0.014c-0.007,-0.009 -0.009,-0.022 -0.005,-0.039c0.004,-0.019 0.012,-0.033 0.023,-0.041c0.011,-0.009 0.028,-0.013 0.051,-0.013l0.083,-0c0.009,-0 0.015,0.002 0.019,0.005c0.004,0.004 0.006,0.009 0.004,0.016l-0.008,0.038c0.02,-0.024 0.043,-0.041 0.069,-0.053c0.025,-0.012 0.054,-0.018 0.084,-0.018c0.052,0 0.088,0.016 0.107,0.047c0.019,0.032 0.021,0.08 0.007,0.145l-0.035,0.163Z" style="fill:#1da1f2;fill-rule:nonzero;"/></g><g transform="matrix(11.5581,0,0,11.5581,522.695,615.774)"><path d="M0.172,-0.007c-0.01,0.007 -0.02,0.012 -0.029,0.015c-0.01,0.003 -0.019,0.005 -0.029,0.005c-0.014,0 -0.023,-0.004 -0.027,-0.011c-0.004,-0.008 -0.004,-0.022 0,-0.042l0.014,-0.065c0.005,-0.021 0.011,-0.037 0.021,-0.046c0.009,-0.009 0.022,-0.013 0.04,-0.013c0.019,-0 0.032,0.009 0.041,0.028c0.005,0.01 0.009,0.017 0.013,0.022c0.013,0.015 0.029,0.025 0.049,0.032c0.019,0.008 0.042,0.011 0.069,0.011c0.024,0 0.044,-0.004 0.06,-0.013c0.016,-0.01 0.025,-0.021 0.028,-0.036c0.006,-0.026 -0.028,-0.045 -0.101,-0.055c-0.016,-0.002 -0.029,-0.004 -0.038,-0.005c-0.055,-0.008 -0.094,-0.023 -0.116,-0.046c-0.023,-0.023 -0.031,-0.054 -0.022,-0.093c0.009,-0.046 0.033,-0.081 0.072,-0.106c0.039,-0.025 0.089,-0.038 0.15,-0.038c0.021,0 0.043,0.002 0.064,0.005c0.022,0.004 0.044,0.009 0.066,0.016c0.008,-0.008 0.017,-0.014 0.025,-0.018c0.008,-0.004 0.017,-0.006 0.027,-0.006c0.013,0 0.022,0.004 0.028,0.013c0.005,0.008 0.006,0.02 0.003,0.037l-0.014,0.06c-0.003,0.014 -0.008,0.025 -0.017,0.033c-0.009,0.007 -0.02,0.011 -0.033,0.011c-0.013,-0 -0.034,-0.012 -0.061,-0.035c-0.027,-0.023 -0.057,-0.035 -0.09,-0.035c-0.025,0 -0.046,0.004 -0.062,0.013c-0.015,0.008 -0.025,0.019 -0.028,0.034c-0.005,0.023 0.021,0.038 0.078,0.046c0.017,0.002 0.03,0.004 0.039,0.005c0.071,0.011 0.118,0.027 0.141,0.048c0.023,0.021 0.03,0.053 0.022,0.095c-0.011,0.049 -0.037,0.087 -0.079,0.114c-0.042,0.027 -0.096,0.04 -0.163,0.04c-0.026,0 -0.051,-0.002 -0.074,-0.005c-0.024,-0.003 -0.046,-0.008 -0.067,-0.015Z" style="fill:#1da1f2;fill-rule:nonzero;"/></g><g transform="matrix(11.5581,0,0,11.5581,529.458,615.774)"><path d="M0.376,-0.359c-0.038,0 -0.072,0.013 -0.102,0.037c-0.03,0.025 -0.049,0.057 -0.057,0.096c-0.009,0.039 -0.003,0.071 0.016,0.097c0.019,0.025 0.048,0.038 0.086,0.038c0.038,0 0.072,-0.013 0.102,-0.038c0.03,-0.026 0.05,-0.058 0.058,-0.097c0.008,-0.039 0.003,-0.071 -0.017,-0.096c-0.019,-0.024 -0.048,-0.037 -0.086,-0.037Zm0.022,-0.103c0.079,0 0.138,0.022 0.178,0.066c0.04,0.045 0.052,0.102 0.037,0.171c-0.014,0.07 -0.051,0.127 -0.11,0.171c-0.058,0.044 -0.127,0.066 -0.206,0.066c-0.079,0 -0.138,-0.022 -0.178,-0.066c-0.04,-0.044 -0.052,-0.101 -0.037,-0.171c0.015,-0.069 0.051,-0.126 0.11,-0.171c0.059,-0.044 0.127,-0.066 0.206,-0.066Z" style="fill:#1da1f2;fill-rule:nonzero;"/></g><g transform="matrix(11.5581,0,0,11.5581,536.221,615.774)"><path d="M0.527,-0.108l0.007,0c0.018,0 0.031,0.005 0.038,0.014c0.007,0.008 0.009,0.022 0.005,0.04c-0.004,0.019 -0.011,0.033 -0.022,0.041c-0.011,0.009 -0.028,0.013 -0.05,0.013l-0.12,-0c-0.022,-0 -0.037,-0.004 -0.045,-0.013c-0.007,-0.008 -0.009,-0.022 -0.006,-0.041c0.004,-0.018 0.012,-0.032 0.023,-0.04c0.011,-0.009 0.026,-0.014 0.044,-0.014l0.006,0l0.03,-0.141c0.009,-0.039 0.009,-0.067 0.002,-0.083c-0.008,-0.017 -0.024,-0.025 -0.049,-0.025c-0.027,0 -0.052,0.01 -0.073,0.03c-0.021,0.019 -0.035,0.045 -0.042,0.078l-0.03,0.141l0.005,0c0.019,0 0.032,0.005 0.039,0.014c0.008,0.008 0.009,0.022 0.005,0.04c-0.003,0.019 -0.011,0.033 -0.022,0.041c-0.012,0.009 -0.028,0.013 -0.05,0.013l-0.121,0c-0.022,0 -0.036,-0.004 -0.044,-0.013c-0.008,-0.008 -0.01,-0.022 -0.006,-0.041c0.004,-0.018 0.012,-0.032 0.022,-0.04c0.011,-0.009 0.026,-0.014 0.045,-0.014l0.006,0l0.05,-0.236l-0.008,-0c-0.018,-0 -0.03,-0.005 -0.038,-0.014c-0.007,-0.009 -0.009,-0.022 -0.005,-0.039c0.004,-0.019 0.012,-0.033 0.023,-0.041c0.011,-0.009 0.028,-0.013 0.051,-0.013l0.083,-0c0.009,-0 0.015,0.002 0.019,0.005c0.004,0.004 0.006,0.009 0.004,0.016l-0.008,0.038c0.02,-0.024 0.043,-0.041 0.069,-0.053c0.025,-0.012 0.054,-0.018 0.084,-0.018c0.052,0 0.088,0.016 0.107,0.047c0.019,0.032 0.021,0.08 0.007,0.145l-0.035,0.163Z" style="fill:#1da1f2;fill-rule:nonzero;"/></g></g></svg>